<svg width="24" height="25" viewBox="0 0 24 25" fill="none" xmlns="http://www.w3.org/2000/svg">
<path d="M23.0584 20.402C22.4564 18.9987 21.5827 17.7239 20.4861 16.6489C19.3928 15.5707 18.0977 14.7111 16.6723 14.1175C16.6595 14.1112 16.6468 14.108 16.634 14.1018C18.6223 12.6884 19.9148 10.3863 19.9148 7.78894C19.9148 3.48618 16.3723 0 12 0C7.62769 0 4.08516 3.48618 4.08516 7.78894C4.08516 10.3863 5.3777 12.6884 7.36599 14.1049C7.35322 14.1112 7.34046 14.1143 7.32769 14.1206C5.89791 14.7142 4.61494 15.5653 3.51389 16.652C2.41829 17.7279 1.54476 19.0024 0.941563 20.4052C0.348978 21.7784 0.0293836 23.2508 7.98059e-05 24.7425C-0.000772013 24.776 0.0052025 24.8093 0.0176515 24.8405C0.0301005 24.8718 0.0487719 24.9002 0.0725657 24.9242C0.0963595 24.9482 0.124794 24.9673 0.156194 24.9803C0.187594 24.9933 0.221325 25 0.255397 25H2.17028C2.3107 25 2.4224 24.8901 2.4256 24.755C2.48942 22.3304 3.47878 20.0597 5.2277 18.3386C7.03727 16.5578 9.44044 15.5779 12 15.5779C14.5596 15.5779 16.9627 16.5578 18.7723 18.3386C20.5212 20.0597 21.5106 22.3304 21.5744 24.755C21.5776 24.8932 21.6893 25 21.8297 25H23.7446C23.7787 25 23.8124 24.9933 23.8438 24.9803C23.8752 24.9673 23.9036 24.9482 23.9274 24.9242C23.9512 24.9002 23.9699 24.8718 23.9823 24.8405C23.9948 24.8093 24.0008 24.776 23.9999 24.7425C23.968 23.2412 23.6521 21.7808 23.0584 20.402ZM12 13.191C10.5351 13.191 9.1564 12.6288 8.11917 11.608C7.08195 10.5873 6.51067 9.23053 6.51067 7.78894C6.51067 6.34736 7.08195 4.99058 8.11917 3.96985C9.1564 2.94912 10.5351 2.38693 12 2.38693C13.4649 2.38693 14.8436 2.94912 15.8808 3.96985C16.9181 4.99058 17.4893 6.34736 17.4893 7.78894C17.4893 9.23053 16.9181 10.5873 15.8808 11.608C14.8436 12.6288 13.4649 13.191 12 13.191Z" fill="white"/>
</svg>
