<svg width="24" height="23" viewBox="0 0 24 23" fill="none" xmlns="http://www.w3.org/2000/svg">
<path d="M22.3684 12.5H1.17729C0.86505 12.5 0.565603 12.6317 0.344819 12.8661C0.124035 13.1005 0 13.4185 0 13.75V21.25C0 21.5815 0.124035 21.8995 0.344819 22.1339C0.565603 22.3683 0.86505 22.5 1.17729 22.5H22.3684C22.6807 22.5 22.9801 22.3683 23.2009 22.1339C23.4217 21.8995 23.5457 21.5815 23.5457 21.25V13.75C23.5457 13.4185 23.4217 13.1005 23.2009 12.8661C22.9801 12.6317 22.6807 12.5 22.3684 12.5ZM21.1911 20H2.35457V15H21.1911V20ZM22.3684 0H1.17729C0.86505 0 0.565603 0.131696 0.344819 0.366116C0.124035 0.600537 0 0.918479 0 1.25V8.75C0 9.08152 0.124035 9.39946 0.344819 9.63388C0.565603 9.8683 0.86505 10 1.17729 10H22.3684C22.6807 10 22.9801 9.8683 23.2009 9.63388C23.4217 9.39946 23.5457 9.08152 23.5457 8.75V1.25C23.5457 0.918479 23.4217 0.600537 23.2009 0.366116C22.9801 0.131696 22.6807 0 22.3684 0ZM21.1911 7.5H2.35457V2.5H21.1911V7.5Z" fill="#A098CE"/>
</svg>
