<svg width="23" height="25" viewBox="0 0 23 25" fill="none" xmlns="http://www.w3.org/2000/svg">
<path d="M15.777 15.7143L22.0878 22.8571L20.1945 25L13.8837 17.8571V16.7286L13.543 16.3286C12.0587 17.777 10.1638 18.573 8.20403 18.5714C6.02818 18.5714 3.94146 17.5931 2.4029 15.8517C0.86435 14.1103 0 11.7484 0 9.28571C0 6.82299 0.86435 4.46113 2.4029 2.71972C3.94146 0.978313 6.02818 0 8.20403 0C10.3799 0 12.4666 0.978313 14.0052 2.71972C15.5437 4.46113 16.4081 6.82299 16.4081 9.28571C16.4081 11.5857 15.6634 13.7 14.4265 15.3286L14.7799 15.7143H15.777ZM8.20403 2.14286L7.50984 2.18571C7.20692 2.92857 6.73992 4.18571 6.39914 5.71429H10.0089C9.66813 4.18571 9.20113 2.92857 8.89822 2.18571C8.67103 2.14286 8.44384 2.14286 8.20403 2.14286ZM13.6692 5.71429C12.9186 4.228 11.7165 3.10095 10.2866 2.54286C10.5895 3.3 10.9808 4.4 11.2711 5.71429H13.6692ZM2.73888 5.71429H5.13698C5.42728 4.4 5.81855 3.3 6.12147 2.54286C4.69156 3.10095 3.48948 4.228 2.73888 5.71429ZM1.89324 9.28571C1.89324 10 1.99421 10.7571 2.18353 11.4286H4.88455L4.73309 9.28571L4.88455 7.14286H2.18353C1.99421 7.81429 1.89324 8.57143 1.89324 9.28571ZM14.2245 11.4286C14.4138 10.7571 14.5148 10 14.5148 9.28571C14.5148 8.57143 14.4138 7.81429 14.2245 7.14286H11.5235C11.7245 8.56237 11.7245 10.0091 11.5235 11.4286H14.2245ZM6.14671 7.14286L5.99525 9.28571L6.14671 11.4286H10.2613C10.4623 10.0091 10.4623 8.56237 10.2613 7.14286H6.14671ZM8.20403 16.4286C8.43122 16.4286 8.6584 16.4286 8.87297 16.3857C9.18851 15.6429 9.66813 14.3857 10.0089 12.8571H6.39914C6.73992 14.3857 7.21955 15.6429 7.53508 16.3857L8.20403 16.4286ZM13.6692 12.8571H11.2711C10.9808 14.1714 10.5895 15.2714 10.2866 16.0286C11.7165 15.4705 12.9186 14.3434 13.6692 12.8571ZM2.73888 12.8571C3.48948 14.3434 4.69156 15.4705 6.12147 16.0286C5.81855 15.2714 5.42728 14.1714 5.13698 12.8571H2.73888Z" fill="#A098CE"/>
</svg>
