<svg width="26" height="14" viewBox="0 0 26 14" fill="none" xmlns="http://www.w3.org/2000/svg">
<path d="M7.03206 13.75C5.16704 13.75 3.37841 13.0257 2.05964 11.7364C0.740876 10.447 0 8.69836 0 6.875C0 5.05164 0.740876 3.30295 2.05964 2.01364C3.37841 0.724328 5.16704 0 7.03206 0H20.4569C21.8133 0 23.1141 0.526784 24.0732 1.46447C25.0323 2.40215 25.5711 3.67392 25.5711 5C25.5711 6.32608 25.0323 7.59785 24.0732 8.53553C23.1141 9.47322 21.8133 10 20.4569 10H9.58918C8.74144 10 7.92843 9.67076 7.32899 9.08471C6.72955 8.49866 6.39279 7.7038 6.39279 6.875C6.39279 6.0462 6.72955 5.25134 7.32899 4.66529C7.92843 4.07924 8.74144 3.75 9.58918 3.75H19.1784V5.625H9.58918C9.25008 5.625 8.92488 5.7567 8.6851 5.99112C8.44533 6.22554 8.31062 6.54348 8.31062 6.875C8.31062 7.20652 8.44533 7.52446 8.6851 7.75888C8.92488 7.9933 9.25008 8.125 9.58918 8.125H20.4569C20.8767 8.125 21.2923 8.04417 21.6801 7.88712C22.0679 7.73008 22.4203 7.49989 22.7171 7.20971C23.0139 6.91953 23.2494 6.57503 23.41 6.19589C23.5706 5.81674 23.6533 5.41038 23.6533 5C23.6533 4.58962 23.5706 4.18326 23.41 3.80411C23.2494 3.42497 23.0139 3.08047 22.7171 2.79029C22.4203 2.50011 22.0679 2.26992 21.6801 2.11288C21.2923 1.95583 20.8767 1.875 20.4569 1.875H7.03206C5.67569 1.875 4.37486 2.40178 3.41576 3.33947C2.45665 4.27715 1.91784 5.54892 1.91784 6.875C1.91784 8.20108 2.45665 9.47285 3.41576 10.4105C4.37486 11.3482 5.67569 11.875 7.03206 11.875H19.1784V13.75H7.03206Z" fill="white"/>
</svg>
