<svg width="24" height="25" viewBox="0 0 24 25" fill="none" xmlns="http://www.w3.org/2000/svg">
<path d="M10.5956 20H12.9501V17.5H10.5956V20ZM11.7729 0C5.27424 0 0 5.6 0 12.5C0 19.4 5.27424 25 11.7729 25C18.2715 25 23.5457 19.4 23.5457 12.5C23.5457 5.6 18.2715 0 11.7729 0ZM11.7729 22.5C6.58103 22.5 2.35457 18.0125 2.35457 12.5C2.35457 6.9875 6.58103 2.5 11.7729 2.5C16.9647 2.5 21.1911 6.9875 21.1911 12.5C21.1911 18.0125 16.9647 22.5 11.7729 22.5ZM11.7729 5C9.17105 5 7.06371 7.2375 7.06371 10H9.41828C9.41828 8.625 10.4778 7.5 11.7729 7.5C13.0679 7.5 14.1274 8.625 14.1274 10C14.1274 12.5 10.5956 12.1875 10.5956 16.25H12.9501C12.9501 13.4375 16.482 13.125 16.482 10C16.482 7.2375 14.3747 5 11.7729 5Z" fill="#A098CE"/>
</svg>
