<svg width="41" height="41" viewBox="0 0 41 41" fill="none" xmlns="http://www.w3.org/2000/svg">
<g clip-path="url(#clip0_36_178)">
<path d="M0.801868 13.3214C0.827908 13.712 0.951603 14.0896 1.17295 14.4541C1.3943 14.8187 1.67424 15.001 2.01277 15.001H14.903C15.528 15.027 15.8275 14.5843 15.8015 13.6729L10.8797 8.75122C13.7182 6.25132 17.0124 5.00137 20.7623 5.00137C23.4705 5.00137 25.977 5.67191 28.2816 7.01301C30.5862 8.3541 32.4091 10.1769 33.7502 12.4815C35.0913 14.7861 35.7619 17.2991 35.7619 20.0203C35.7619 22.7416 35.0913 25.248 33.7502 27.5395C32.4091 29.8311 30.5862 31.6475 28.2816 32.9886C25.977 34.3296 23.4705 35.0002 20.7623 35.0002C18.4707 35.0002 16.3158 34.5119 14.2976 33.5354C12.2794 32.5589 10.5672 31.2113 9.16101 29.4926L5.21581 32.5784C7.09076 34.896 9.38236 36.7124 12.0906 38.0274C14.7989 39.3425 17.6894 40 20.7623 40C23.4705 40 26.0616 39.4727 28.5355 38.418C31.0094 37.3634 33.1382 35.9442 34.922 34.1604C36.7058 32.3766 38.1251 30.2478 39.1797 27.7739C40.2344 25.3001 40.7617 22.709 40.7617 20.0008C40.7617 17.2926 40.2344 14.708 39.1797 12.2472C38.1251 9.78634 36.7058 7.66402 34.922 5.88024C33.1382 4.09645 31.0094 2.67724 28.5355 1.62259C26.0616 0.567947 23.4705 0.0406234 20.7623 0.0406234C18.2363 0.0406234 15.821 0.496335 13.5164 1.40776C11.2117 2.31918 9.14799 3.59517 7.32513 5.23573L2.0909 0.00156244C1.17946 -0.0244782 0.736767 0.274989 0.762806 0.899965L0.801868 13.3214Z" fill="white"/>
</g>
<defs>
<clipPath id="clip0_36_178">
<rect width="40.7619" height="40.7619" fill="white"/>
</clipPath>
</defs>
</svg>
