<svg width="109" height="74" viewBox="0 0 109 74" fill="none" xmlns="http://www.w3.org/2000/svg">
<g filter="url(#filter0_d_58_182)">
<rect x="14" y="9" width="81" height="46" rx="3.37243" fill="white"/>
</g>
<path d="M46.4989 34.0726H47.5612C48.112 34.0726 48.5645 33.8983 48.9186 33.5499C49.2783 33.1958 49.4582 32.6871 49.4582 32.0238C49.4582 31.355 49.2811 30.8435 48.927 30.4894C48.5729 30.1297 48.1204 29.9498 47.5696 29.9498H46.4989V34.0726ZM47.5949 35H45.4871V29.0224H47.6033C48.4464 29.0224 49.1406 29.2894 49.6858 29.8233C50.2366 30.3573 50.512 31.0908 50.512 32.0238C50.512 32.9512 50.2366 33.6791 49.6858 34.2075C49.135 34.7358 48.438 35 47.5949 35ZM52.4903 33.904C52.7151 34.1344 52.9877 34.2496 53.3081 34.2496C53.6284 34.2496 53.8982 34.1344 54.1175 33.904C54.3423 33.6735 54.4547 33.3531 54.4547 32.9428C54.4547 32.5381 54.3423 32.2234 54.1175 31.9985C53.8982 31.7681 53.6284 31.6529 53.3081 31.6529C52.9877 31.6529 52.7151 31.7681 52.4903 31.9985C52.271 32.2234 52.1614 32.5381 52.1614 32.9428C52.1614 33.3475 52.271 33.6679 52.4903 33.904ZM53.3081 30.7676C53.9263 30.7676 54.435 30.9728 54.8341 31.3831C55.2388 31.7934 55.4411 32.3133 55.4411 32.9428C55.4411 33.5723 55.2388 34.0951 54.8341 34.511C54.435 34.9213 53.9263 35.1265 53.3081 35.1265C52.6954 35.1265 52.1867 34.9213 51.782 34.511C51.383 34.0951 51.1834 33.5723 51.1834 32.9428C51.1834 32.3133 51.383 31.7934 51.782 31.3831C52.1867 30.9728 52.6954 30.7676 53.3081 30.7676ZM58.6144 30.8941H59.6262L60.5957 33.7353L61.4136 30.8941H62.4084L61.0932 35H60.1152L59.095 32.0491L58.1001 35H57.0968L55.7647 30.8941H56.8102L57.6449 33.7353L58.6144 30.8941ZM64.1322 32.6309V35H63.1542V30.8941H64.1069V31.4421C64.2362 31.2173 64.4076 31.0514 64.6212 30.9447C64.8404 30.8322 65.0736 30.776 65.321 30.776C65.8043 30.776 66.1725 30.9278 66.4254 31.2313C66.6784 31.5348 66.8048 31.9255 66.8048 32.4032V35H65.8268V32.5719C65.8268 32.2964 65.7594 32.0772 65.6245 31.9142C65.4896 31.7456 65.276 31.6613 64.9837 31.6613C64.7139 31.6613 64.5031 31.754 64.3514 31.9395C64.2052 32.1194 64.1322 32.3498 64.1322 32.6309ZM68.9735 35H67.9955V28.8959H68.9735V35ZM71.2214 33.904C71.4462 34.1344 71.7188 34.2496 72.0392 34.2496C72.3596 34.2496 72.6294 34.1344 72.8486 33.904C73.0734 33.6735 73.1858 33.3531 73.1858 32.9428C73.1858 32.5381 73.0734 32.2234 72.8486 31.9985C72.6294 31.7681 72.3596 31.6529 72.0392 31.6529C71.7188 31.6529 71.4462 31.7681 71.2214 31.9985C71.0022 32.2234 70.8926 32.5381 70.8926 32.9428C70.8926 33.3475 71.0022 33.6679 71.2214 33.904ZM72.0392 30.7676C72.6575 30.7676 73.1662 30.9728 73.5652 31.3831C73.9699 31.7934 74.1723 32.3133 74.1723 32.9428C74.1723 33.5723 73.9699 34.0951 73.5652 34.511C73.1662 34.9213 72.6575 35.1265 72.0392 35.1265C71.4265 35.1265 70.9179 34.9213 70.5132 34.511C70.1141 34.0951 69.9146 33.5723 69.9146 32.9428C69.9146 32.3133 70.1141 31.7934 70.5132 31.3831C70.9179 30.9728 71.4265 30.7676 72.0392 30.7676ZM74.8645 33.8871C74.8645 33.5386 74.9769 33.2604 75.2017 33.0524C75.4322 32.8388 75.7329 32.7039 76.1038 32.6477L77.1577 32.4875C77.3601 32.4594 77.4612 32.3611 77.4612 32.1925C77.4612 32.007 77.3966 31.858 77.2673 31.7456C77.138 31.6276 76.9441 31.5686 76.6856 31.5686C76.4383 31.5686 76.2415 31.6388 76.0954 31.7793C75.9493 31.9142 75.865 32.0913 75.8425 32.3105L74.9488 32.1081C74.9881 31.7372 75.1652 31.4224 75.4799 31.1639C75.7947 30.8997 76.1938 30.7676 76.6771 30.7676C77.2729 30.7676 77.7114 30.9109 77.9924 31.1976C78.2791 31.4842 78.4224 31.8524 78.4224 32.3021V34.3424C78.4224 34.6122 78.4392 34.8314 78.473 35H77.5624C77.5343 34.9157 77.5203 34.7414 77.5203 34.4773C77.2505 34.9101 76.8289 35.1265 76.2556 35.1265C75.8397 35.1265 75.5024 35.0056 75.2439 34.7639C74.9909 34.5166 74.8645 34.2243 74.8645 33.8871ZM76.4411 34.3592C76.7446 34.3592 76.9891 34.2777 77.1746 34.1147C77.3657 33.9461 77.4612 33.6735 77.4612 33.2969V33.1114L76.3905 33.2716C76.0251 33.3335 75.8425 33.5189 75.8425 33.8281C75.8425 33.9742 75.8959 34.1007 76.0027 34.2075C76.1095 34.3087 76.2556 34.3592 76.4411 34.3592ZM80.254 32.9344C80.254 33.3278 80.3552 33.6454 80.5575 33.8871C80.7599 34.1232 81.0269 34.2412 81.3585 34.2412C81.6789 34.2412 81.9402 34.1204 82.1426 33.8787C82.3449 33.637 82.4461 33.3194 82.4461 32.926C82.4461 32.5381 82.3477 32.229 82.151 31.9985C81.9543 31.7681 81.6929 31.6529 81.3669 31.6529C81.0409 31.6529 80.7739 31.7709 80.566 32.007C80.358 32.2374 80.254 32.5466 80.254 32.9344ZM83.3904 28.8959V34.2496C83.3904 34.525 83.4044 34.7752 83.4325 35H82.4967C82.4686 34.8426 82.4545 34.6656 82.4545 34.4688C82.3534 34.6543 82.196 34.8061 81.9824 34.9241C81.7688 35.0422 81.5243 35.1012 81.2489 35.1012C80.6643 35.1012 80.1894 34.896 79.824 34.4857C79.4587 34.0754 79.276 33.5583 79.276 32.9344C79.276 32.333 79.4587 31.8243 79.824 31.4084C80.195 30.9924 80.6643 30.7845 81.232 30.7845C81.558 30.7845 81.8194 30.8435 82.0161 30.9615C82.2185 31.0796 82.359 31.2173 82.4377 31.3746V28.8959H83.3904Z" fill="#31BA86"/>
<path d="M31.0457 34.5999C31.06 34.6182 31.0784 34.6331 31.0993 34.6433C31.1202 34.6534 31.1431 34.6587 31.1664 34.6587C31.1897 34.6587 31.2126 34.6534 31.2336 34.6433C31.2545 34.6331 31.2728 34.6182 31.2871 34.5999L33.4332 31.8847C33.5118 31.7851 33.4409 31.6376 33.3125 31.6376H31.8926V25.1533C31.8926 25.069 31.8237 25 31.7393 25H30.5896C30.5053 25 30.4364 25.069 30.4364 25.1533V31.6356H29.0203C28.8919 31.6356 28.821 31.7832 28.8996 31.8828L31.0457 34.5999ZM38.1795 33.9293H37.0298C36.9455 33.9293 36.8765 33.9983 36.8765 34.0826V37.0334H25.4563V34.0826C25.4563 33.9983 25.3873 33.9293 25.303 33.9293H24.1533C24.069 33.9293 24 33.9983 24 34.0826V37.8765C24 38.2157 24.274 38.4897 24.6132 38.4897H37.7197C38.0588 38.4897 38.3328 38.2157 38.3328 37.8765V34.0826C38.3328 33.9983 38.2638 33.9293 38.1795 33.9293Z" fill="#31BA86"/>
<defs>
<filter id="filter0_d_58_182" x="0.510285" y="0.568928" width="107.979" height="72.9794" filterUnits="userSpaceOnUse" color-interpolation-filters="sRGB">
<feFlood flood-opacity="0" result="BackgroundImageFix"/>
<feColorMatrix in="SourceAlpha" type="matrix" values="0 0 0 0 0 0 0 0 0 0 0 0 0 0 0 0 0 0 127 0" result="hardAlpha"/>
<feOffset dy="5.05864"/>
<feGaussianBlur stdDeviation="6.74486"/>
<feColorMatrix type="matrix" values="0 0 0 0 0.341176 0 0 0 0 0.411765 0 0 0 0 0.694118 0 0 0 0.06 0"/>
<feBlend mode="normal" in2="BackgroundImageFix" result="effect1_dropShadow_58_182"/>
<feBlend mode="normal" in="SourceGraphic" in2="effect1_dropShadow_58_182" result="shape"/>
</filter>
</defs>
</svg>
