<svg width="43" height="40" viewBox="0 0 43 40" fill="none" xmlns="http://www.w3.org/2000/svg">
<path d="M20.892 28.4659C20.9346 28.5202 20.9889 28.5642 21.0509 28.5944C21.1129 28.6246 21.181 28.6403 21.25 28.6403C21.319 28.6403 21.3871 28.6246 21.4491 28.5944C21.5111 28.5642 21.5654 28.5202 21.608 28.4659L27.9716 20.4148C28.2045 20.1193 27.9943 19.6818 27.6136 19.6818H23.4034V0.454545C23.4034 0.204545 23.1989 0 22.9489 0H19.5398C19.2898 0 19.0852 0.204545 19.0852 0.454545V19.6761H14.8864C14.5057 19.6761 14.2955 20.1136 14.5284 20.4091L20.892 28.4659ZM42.0455 26.4773H38.6364C38.3864 26.4773 38.1818 26.6818 38.1818 26.9318V35.6818H4.31818V26.9318C4.31818 26.6818 4.11364 26.4773 3.86364 26.4773H0.454545C0.204545 26.4773 0 26.6818 0 26.9318V38.1818C0 39.1875 0.8125 40 1.81818 40H40.6818C41.6875 40 42.5 39.1875 42.5 38.1818V26.9318C42.5 26.6818 42.2955 26.4773 42.0455 26.4773Z" fill="#31BA86"/>
</svg>
